<?xml version="1.0" encoding="UTF-8"?>
<svg width="16px" height="17px" viewBox="0 0 16 17" version="1.1" xmlns="http://www.w3.org/2000/svg" xmlns:xlink="http://www.w3.org/1999/xlink">
    <title>map</title>
    <g id="map" stroke="none" stroke-width="1" fill="none" fill-rule="evenodd" transform="translate(0.000000, 1.000000)">
        <path d="M12.4947117,0.466202142 C11.8272171,1.48800544 11.6306132,2.85288594 11.9049001,4.56084364 C12.1404566,6.02763062 12.7963881,8.65380686 13.2905071,9.88480263 C8.26321057,10.5519016 5.64615449,10.9251118 5.43877682,11 C5.12762677,11.1123624 5.04468691,11.2814179 5,11.5720721 C4.97020873,11.7658415 5.04347325,12.0499237 5.21979358,12.4243185 C5.15287713,11.9581319 5.15287713,11.6488957 5.21979358,11.4966099 C5.28671003,11.3443241 5.46381037,11.2505224 5.75109461,11.2152047 L5.75109461,11.2152047 L13.4081594,10.0612184 C13.624717,10.119008 14.2782292,9.76443882 14.6156805,10.2337017 C15,10.7681401 14.955292,11.198577 14.6156805,11.6479946 C14.3892728,11.9476064 11.5173793,12.6222818 6,13.672021 C5.54658221,13.997254 5.11189515,13.7365185 4.69593883,12.8898146 C3.17442135,9.79267491 3.0238376,7.290334 2.89097897,6 C2.80775493,5.19172116 2.69399398,4.77194524 2.89097897,3.90169781 C2.98600807,3.48187485 3.51270773,3.25666931 4.47107796,3.22608118 C4.29158606,2.08927694 4.65837857,1.45252228 5.57145549,1.31581719 C6.48453241,1.17911209 8.79228449,0.895907078 12.4947117,0.466202142 Z" id="Combined-Shape" fill="#A5EFAC"></path>
    </g>
</svg>